<mxfile host="www.draw.io" modified="2019-11-12T03:49:18.253Z" agent="Mozilla/5.0 (Windows NT 10.0; Win64; x64) AppleWebKit/537.36 (KHTML, like Gecko) Chrome/78.0.3904.70 Safari/537.36" etag="4WQbnPP4vK_S9xplEbUn" version="12.2.3" type="github" pages="1">
  <diagram id="FCnuCi0mLgoETxNgeYDF" name="第 1 页">
    <mxGraphModel dx="1422" dy="713" grid="1" gridSize="10" guides="1" tooltips="1" connect="1" arrows="1" fold="1" page="1" pageScale="1" pageWidth="827" pageHeight="1169" math="0" shadow="0">
      <root>
        <mxCell id="0"/>
        <mxCell id="1" parent="0"/>
        <object label="" id="24izZnUR9csgt45bPShQ-31">
          <mxCell style="edgeStyle=orthogonalEdgeStyle;rounded=0;orthogonalLoop=1;jettySize=auto;html=1;exitX=0.75;exitY=1;exitDx=0;exitDy=0;entryX=0.75;entryY=0;entryDx=0;entryDy=0;" edge="1" parent="1" source="24izZnUR9csgt45bPShQ-1" target="24izZnUR9csgt45bPShQ-2">
            <mxGeometry relative="1" as="geometry">
              <Array as="points">
                <mxPoint x="220" y="205"/>
                <mxPoint x="218" y="205"/>
              </Array>
            </mxGeometry>
          </mxCell>
        </object>
        <mxCell id="24izZnUR9csgt45bPShQ-33" value="assign" style="text;html=1;resizable=0;points=[];align=center;verticalAlign=middle;labelBackgroundColor=#ffffff;" vertex="1" connectable="0" parent="24izZnUR9csgt45bPShQ-31">
          <mxGeometry x="-0.1607" y="1" relative="1" as="geometry">
            <mxPoint as="offset"/>
          </mxGeometry>
        </mxCell>
        <mxCell id="24izZnUR9csgt45bPShQ-1" value="线程A" style="rounded=1;whiteSpace=wrap;html=1;" vertex="1" parent="1">
          <mxGeometry x="130" y="70" width="120" height="60" as="geometry"/>
        </mxCell>
        <mxCell id="24izZnUR9csgt45bPShQ-16" style="edgeStyle=orthogonalEdgeStyle;rounded=0;orthogonalLoop=1;jettySize=auto;html=1;exitX=0.25;exitY=0;exitDx=0;exitDy=0;entryX=0.25;entryY=1;entryDx=0;entryDy=0;" edge="1" parent="1" source="24izZnUR9csgt45bPShQ-2" target="24izZnUR9csgt45bPShQ-1">
          <mxGeometry relative="1" as="geometry">
            <Array as="points">
              <mxPoint x="160" y="240"/>
            </Array>
          </mxGeometry>
        </mxCell>
        <mxCell id="24izZnUR9csgt45bPShQ-18" value="use" style="text;html=1;resizable=0;points=[];align=center;verticalAlign=middle;labelBackgroundColor=#ffffff;" vertex="1" connectable="0" parent="24izZnUR9csgt45bPShQ-16">
          <mxGeometry x="-0.4395" relative="1" as="geometry">
            <mxPoint x="-2" y="-20" as="offset"/>
          </mxGeometry>
        </mxCell>
        <mxCell id="24izZnUR9csgt45bPShQ-22" style="edgeStyle=orthogonalEdgeStyle;rounded=0;orthogonalLoop=1;jettySize=auto;html=1;exitX=1;exitY=0.75;exitDx=0;exitDy=0;entryX=0.5;entryY=0;entryDx=0;entryDy=0;" edge="1" parent="1" source="24izZnUR9csgt45bPShQ-2" target="24izZnUR9csgt45bPShQ-21">
          <mxGeometry relative="1" as="geometry"/>
        </mxCell>
        <mxCell id="24izZnUR9csgt45bPShQ-23" value="store" style="text;html=1;resizable=0;points=[];align=center;verticalAlign=middle;labelBackgroundColor=#ffffff;" vertex="1" connectable="0" parent="24izZnUR9csgt45bPShQ-22">
          <mxGeometry x="-0.1754" y="2" relative="1" as="geometry">
            <mxPoint as="offset"/>
          </mxGeometry>
        </mxCell>
        <mxCell id="24izZnUR9csgt45bPShQ-2" value="" style="rounded=1;whiteSpace=wrap;html=1;fillColor=#f8cecc;strokeColor=#b85450;" vertex="1" parent="1">
          <mxGeometry x="120" y="240" width="130" height="100" as="geometry"/>
        </mxCell>
        <mxCell id="24izZnUR9csgt45bPShQ-3" value="工作内存" style="text;html=1;strokeColor=none;fillColor=none;align=center;verticalAlign=middle;whiteSpace=wrap;rounded=0;" vertex="1" parent="1">
          <mxGeometry x="152.5" y="260" width="65" height="20" as="geometry"/>
        </mxCell>
        <mxCell id="24izZnUR9csgt45bPShQ-5" value="flag = 0&amp;nbsp; -&amp;gt; 1" style="rounded=1;whiteSpace=wrap;html=1;" vertex="1" parent="1">
          <mxGeometry x="140" y="300" width="90" height="30" as="geometry"/>
        </mxCell>
        <mxCell id="24izZnUR9csgt45bPShQ-10" style="edgeStyle=orthogonalEdgeStyle;rounded=0;orthogonalLoop=1;jettySize=auto;html=1;exitX=0.25;exitY=0;exitDx=0;exitDy=0;entryX=1;entryY=0.5;entryDx=0;entryDy=0;" edge="1" parent="1" source="24izZnUR9csgt45bPShQ-6" target="24izZnUR9csgt45bPShQ-9">
          <mxGeometry relative="1" as="geometry"/>
        </mxCell>
        <mxCell id="24izZnUR9csgt45bPShQ-11" value="read" style="text;html=1;resizable=0;points=[];align=center;verticalAlign=middle;labelBackgroundColor=#ffffff;" vertex="1" connectable="0" parent="24izZnUR9csgt45bPShQ-10">
          <mxGeometry x="0.0058" relative="1" as="geometry">
            <mxPoint as="offset"/>
          </mxGeometry>
        </mxCell>
        <mxCell id="24izZnUR9csgt45bPShQ-50" style="edgeStyle=orthogonalEdgeStyle;rounded=0;orthogonalLoop=1;jettySize=auto;html=1;exitX=0.75;exitY=0;exitDx=0;exitDy=0;entryX=0.889;entryY=1.167;entryDx=0;entryDy=0;entryPerimeter=0;" edge="1" parent="1" source="24izZnUR9csgt45bPShQ-6" target="24izZnUR9csgt45bPShQ-47">
          <mxGeometry relative="1" as="geometry"/>
        </mxCell>
        <mxCell id="24izZnUR9csgt45bPShQ-6" value="" style="rounded=1;whiteSpace=wrap;html=1;" vertex="1" parent="1">
          <mxGeometry x="158" y="450" width="482" height="120" as="geometry"/>
        </mxCell>
        <mxCell id="24izZnUR9csgt45bPShQ-7" value="主内存" style="text;html=1;strokeColor=none;fillColor=none;align=center;verticalAlign=middle;whiteSpace=wrap;rounded=0;" vertex="1" parent="1">
          <mxGeometry x="359" y="460" width="40" height="20" as="geometry"/>
        </mxCell>
        <mxCell id="24izZnUR9csgt45bPShQ-8" value="flag = 0&amp;nbsp; -&amp;gt; 1" style="rounded=1;whiteSpace=wrap;html=1;" vertex="1" parent="1">
          <mxGeometry x="330" y="510" width="90" height="30" as="geometry"/>
        </mxCell>
        <mxCell id="24izZnUR9csgt45bPShQ-12" style="edgeStyle=orthogonalEdgeStyle;rounded=0;orthogonalLoop=1;jettySize=auto;html=1;exitX=0.25;exitY=0;exitDx=0;exitDy=0;entryX=0;entryY=0.75;entryDx=0;entryDy=0;" edge="1" parent="1" source="24izZnUR9csgt45bPShQ-9" target="24izZnUR9csgt45bPShQ-2">
          <mxGeometry relative="1" as="geometry">
            <mxPoint x="60" y="290" as="targetPoint"/>
          </mxGeometry>
        </mxCell>
        <mxCell id="24izZnUR9csgt45bPShQ-13" value="load" style="text;html=1;resizable=0;points=[];align=center;verticalAlign=middle;labelBackgroundColor=#ffffff;fontColor=#FF0000;" vertex="1" connectable="0" parent="24izZnUR9csgt45bPShQ-12">
          <mxGeometry x="-0.2333" relative="1" as="geometry">
            <mxPoint as="offset"/>
          </mxGeometry>
        </mxCell>
        <mxCell id="24izZnUR9csgt45bPShQ-9" value="flag = 0&amp;nbsp;" style="rounded=1;whiteSpace=wrap;html=1;" vertex="1" parent="1">
          <mxGeometry x="62.5" y="380" width="90" height="30" as="geometry"/>
        </mxCell>
        <mxCell id="24izZnUR9csgt45bPShQ-29" style="edgeStyle=orthogonalEdgeStyle;rounded=0;orthogonalLoop=1;jettySize=auto;html=1;exitX=0.75;exitY=1;exitDx=0;exitDy=0;entryX=0.454;entryY=0.008;entryDx=0;entryDy=0;entryPerimeter=0;" edge="1" parent="1" source="24izZnUR9csgt45bPShQ-21" target="24izZnUR9csgt45bPShQ-6">
          <mxGeometry relative="1" as="geometry">
            <Array as="points">
              <mxPoint x="377" y="410"/>
              <mxPoint x="377" y="410"/>
            </Array>
          </mxGeometry>
        </mxCell>
        <mxCell id="24izZnUR9csgt45bPShQ-30" value="write" style="text;html=1;resizable=0;points=[];align=center;verticalAlign=middle;labelBackgroundColor=#ffffff;" vertex="1" connectable="0" parent="24izZnUR9csgt45bPShQ-29">
          <mxGeometry x="-0.6396" y="-7" relative="1" as="geometry">
            <mxPoint x="7" y="14" as="offset"/>
          </mxGeometry>
        </mxCell>
        <mxCell id="24izZnUR9csgt45bPShQ-21" value="flag = 1" style="rounded=1;whiteSpace=wrap;html=1;" vertex="1" parent="1">
          <mxGeometry x="311" y="365" width="88" height="25" as="geometry"/>
        </mxCell>
        <mxCell id="24izZnUR9csgt45bPShQ-36" value="线程B" style="rounded=1;whiteSpace=wrap;html=1;" vertex="1" parent="1">
          <mxGeometry x="507.5" y="65" width="120" height="60" as="geometry"/>
        </mxCell>
        <mxCell id="24izZnUR9csgt45bPShQ-37" style="edgeStyle=orthogonalEdgeStyle;rounded=0;orthogonalLoop=1;jettySize=auto;html=1;exitX=0.25;exitY=0;exitDx=0;exitDy=0;entryX=0.25;entryY=1;entryDx=0;entryDy=0;" edge="1" parent="1" source="24izZnUR9csgt45bPShQ-41" target="24izZnUR9csgt45bPShQ-36">
          <mxGeometry relative="1" as="geometry">
            <Array as="points">
              <mxPoint x="537.5" y="235"/>
            </Array>
          </mxGeometry>
        </mxCell>
        <mxCell id="24izZnUR9csgt45bPShQ-38" value="use" style="text;html=1;resizable=0;points=[];align=center;verticalAlign=middle;labelBackgroundColor=#ffffff;" vertex="1" connectable="0" parent="24izZnUR9csgt45bPShQ-37">
          <mxGeometry x="-0.4395" relative="1" as="geometry">
            <mxPoint x="-2" y="-20" as="offset"/>
          </mxGeometry>
        </mxCell>
        <mxCell id="24izZnUR9csgt45bPShQ-41" value="" style="rounded=1;whiteSpace=wrap;html=1;fillColor=#f8cecc;strokeColor=#b85450;" vertex="1" parent="1">
          <mxGeometry x="497.5" y="235" width="130" height="100" as="geometry"/>
        </mxCell>
        <mxCell id="24izZnUR9csgt45bPShQ-42" value="工作内存" style="text;html=1;strokeColor=none;fillColor=none;align=center;verticalAlign=middle;whiteSpace=wrap;rounded=0;" vertex="1" parent="1">
          <mxGeometry x="530" y="255" width="65" height="20" as="geometry"/>
        </mxCell>
        <mxCell id="24izZnUR9csgt45bPShQ-43" value="flag = 0&amp;nbsp;" style="rounded=1;whiteSpace=wrap;html=1;" vertex="1" parent="1">
          <mxGeometry x="517.5" y="295" width="90" height="30" as="geometry"/>
        </mxCell>
        <mxCell id="24izZnUR9csgt45bPShQ-44" value="read" style="text;html=1;resizable=0;points=[];align=center;verticalAlign=middle;labelBackgroundColor=#ffffff;" vertex="1" connectable="0" parent="1">
          <mxGeometry x="530" y="430" as="geometry">
            <mxPoint as="offset"/>
          </mxGeometry>
        </mxCell>
        <mxCell id="24izZnUR9csgt45bPShQ-45" style="edgeStyle=orthogonalEdgeStyle;rounded=0;orthogonalLoop=1;jettySize=auto;html=1;exitX=0.25;exitY=0;exitDx=0;exitDy=0;entryX=0;entryY=0.75;entryDx=0;entryDy=0;" edge="1" parent="1" source="24izZnUR9csgt45bPShQ-47" target="24izZnUR9csgt45bPShQ-41">
          <mxGeometry relative="1" as="geometry">
            <mxPoint x="437.5" y="285" as="targetPoint"/>
          </mxGeometry>
        </mxCell>
        <mxCell id="24izZnUR9csgt45bPShQ-46" value="load" style="text;html=1;resizable=0;points=[];align=center;verticalAlign=middle;labelBackgroundColor=#ffffff;fontColor=#FF0080;" vertex="1" connectable="0" parent="24izZnUR9csgt45bPShQ-45">
          <mxGeometry x="-0.2333" relative="1" as="geometry">
            <mxPoint as="offset"/>
          </mxGeometry>
        </mxCell>
        <mxCell id="24izZnUR9csgt45bPShQ-47" value="flag = 0&amp;nbsp;" style="rounded=1;whiteSpace=wrap;html=1;" vertex="1" parent="1">
          <mxGeometry x="440" y="375" width="90" height="30" as="geometry"/>
        </mxCell>
      </root>
    </mxGraphModel>
  </diagram>
</mxfile>
